<svg width="41" height="39" viewBox="0 0 41 39" fill="none" xmlns="http://www.w3.org/2000/svg">
<g filter="url(#filter0_d)">
<path d="M9.42242 26.9242C9.30641 26.8143 9.1454 26.7511 8.98127 26.7511C8.81714 26.7511 8.65613 26.8143 8.54006 26.9242C8.42398 27.0342 8.35721 27.1865 8.35721 27.3419C8.35721 27.4972 8.42392 27.6497 8.54006 27.7595C8.65613 27.8694 8.81714 27.9326 8.98127 27.9326C9.1454 27.9326 9.30641 27.8694 9.42242 27.7595C9.5385 27.6497 9.60533 27.4972 9.60533 27.3419C9.60533 27.1865 9.53856 27.0341 9.42242 26.9242Z" fill="#FFBB01"/>
<path d="M33.4148 10.8562C33.2987 10.7463 33.1383 10.6831 32.9736 10.6831C32.8094 10.6831 32.6484 10.7463 32.5323 10.8562C32.4163 10.9661 32.3495 11.1185 32.3495 11.2739C32.3495 11.4293 32.4163 11.5817 32.5323 11.6915C32.6484 11.8014 32.8094 11.8646 32.9736 11.8646C33.1383 11.8646 33.2987 11.8014 33.4148 11.6915C33.5314 11.5817 33.5982 11.4293 33.5982 11.2739C33.5982 11.1185 33.5314 10.9661 33.4148 10.8562Z" fill="#FFBB01"/>
<path d="M35.8822 0.222164C35.7652 0.111398 35.6064 0.0491333 35.4408 0.0491333L20.0893 0.0499013C19.7447 0.0499013 19.4653 0.31444 19.4653 0.640652V2.33002L13.5498 3.83047C13.2169 3.91495 13.0193 4.23886 13.1086 4.55396L16.1744 15.3849L13.5222 17.8955C13.1846 17.429 12.6179 17.1221 11.9768 17.1221H5.98594C4.95362 17.1221 4.11382 17.9172 4.11382 18.8943V28.5233C4.11382 29.5005 4.95362 30.2956 5.98594 30.2956H11.9768C12.8538 30.2956 13.5916 29.7216 13.7938 28.9499L14.5358 29.5624C15.1086 30.0352 15.8425 30.2956 16.6026 30.2956H35.441C35.7856 30.2956 36.065 30.0311 36.065 29.7049V0.639884C36.0649 0.483217 35.9993 0.33293 35.8822 0.222164ZM12.6008 28.5234C12.6008 28.8491 12.3208 29.1141 11.9767 29.1141H5.98588C5.64177 29.1141 5.36182 28.8491 5.36182 28.5234V18.8944C5.36182 18.5686 5.64177 18.3036 5.98588 18.3036H8.35726V25.1088C8.35726 25.435 8.63671 25.6995 8.98132 25.6995C9.32593 25.6995 9.60538 25.435 9.60538 25.1088V18.3036H11.9768C12.3209 18.3036 12.6008 18.5686 12.6008 18.8944V28.5234H12.6008ZM14.4756 4.8188L19.4653 3.55317V5.7422L19.047 5.8483C18.8871 5.88888 18.7508 5.98783 18.6681 6.12353C18.5853 6.25923 18.5629 6.42044 18.6057 6.57179C18.8456 7.41899 18.3126 8.29289 17.4176 8.51991C17.2575 8.56055 17.121 8.65968 17.0383 8.79567C16.9557 8.93161 16.9334 9.09312 16.9766 9.24459L19.4092 17.7714H18.1567L17.5112 15.381C17.4907 15.3049 17.4547 15.2347 17.4066 15.1738L14.4756 4.8188ZM19.4653 8.45133V13.4361L18.327 9.4465C18.8025 9.2141 19.1916 8.86639 19.4653 8.45133ZM28.4308 29.1141H16.6024C16.1441 29.1141 15.7014 28.9571 15.3559 28.6719L13.8489 27.4277V19.2572L16.5734 16.6781L17.0676 18.5083C17.1382 18.7698 17.387 18.9527 17.6721 18.9527L29.9415 18.9534C30.4233 18.9534 30.8152 19.3244 30.8152 19.7805C30.8152 20.2365 30.4233 20.6075 29.9415 20.6075H23.6547C23.3101 20.6075 23.0306 20.872 23.0306 21.1983C23.0306 21.5245 23.3101 21.789 23.6547 21.789H31.8948C32.3766 21.789 32.7685 22.16 32.7685 22.6161C32.7685 23.0721 32.3766 23.4431 31.8948 23.4431H23.6547C23.3101 23.4431 23.0306 23.7076 23.0306 24.0339C23.0306 24.3601 23.3101 24.6246 23.6547 24.6246H30.5595C31.0413 24.6246 31.4332 24.9956 31.4332 25.4517C31.4332 25.9077 31.0413 26.2787 30.5595 26.2787H23.6547C23.3101 26.2787 23.0306 26.5432 23.0306 26.8695C23.0306 27.1957 23.3101 27.4602 23.6547 27.4602H28.4308C28.9126 27.4602 29.3045 27.8312 29.3045 28.2873C29.3044 28.7431 28.9125 29.1141 28.4308 29.1141ZM34.8169 29.1141H34.8168H30.3636C30.4846 28.8617 30.5526 28.5818 30.5526 28.287C30.5526 27.9922 30.4846 27.7124 30.3636 27.46H30.5595C31.7294 27.46 32.6812 26.559 32.6812 25.4515C32.6812 25.1285 32.5998 24.8232 32.456 24.5525C33.3544 24.319 34.0165 23.5395 34.0165 22.6159C34.0165 22.1679 33.8606 21.7537 33.5977 21.4194V13.9322C33.5977 13.606 33.3182 13.3414 32.9736 13.3414C32.629 13.3414 32.3496 13.606 32.3496 13.9322V20.6545C32.2029 20.624 32.0508 20.6075 31.8947 20.6075H31.8742C31.9952 20.3551 32.0632 20.0752 32.0632 19.7805C32.0632 18.6729 31.1113 17.772 29.9414 17.772H28.9382C30.0034 17.3395 30.7516 16.3373 30.7516 15.1724C30.7516 13.6134 29.4118 12.3451 27.765 12.3451C26.1182 12.3451 24.7784 13.6134 24.7784 15.1724C24.7784 16.3373 25.5266 17.3395 26.5918 17.772H23.1804V6.5393C24.2953 6.30932 25.1749 5.47666 25.4178 4.42128H30.1121C30.355 5.47666 31.2347 6.30932 32.3495 6.5393V8.37595C32.3495 8.70216 32.6289 8.9667 32.9736 8.9667C33.3182 8.9667 33.5976 8.70216 33.5976 8.37595V6.01188C33.5976 5.68567 33.3182 5.42113 32.9736 5.42113C32.047 5.42113 31.2933 4.70756 31.2933 3.83053C31.2933 3.50432 31.0139 3.23978 30.6693 3.23978H24.8607C24.5161 3.23978 24.2367 3.50432 24.2367 3.83053C24.2367 4.70762 23.4829 5.42113 22.5564 5.42113C22.2118 5.42113 21.9324 5.68567 21.9324 6.01188V17.7719H20.7135V1.23129L34.8169 1.23064V29.1141ZM27.7651 16.8181C26.8065 16.8181 26.0267 16.0798 26.0267 15.1724C26.0267 14.265 26.8066 13.5267 27.7651 13.5267C28.7237 13.5267 29.5036 14.265 29.5036 15.1724C29.5036 16.0798 28.7237 16.8181 27.7651 16.8181Z" fill="#FFBB01"/>
</g>
<defs>
<filter id="filter0_d" x="0.113815" y="0.0491333" width="39.9512" height="38.2465" filterUnits="userSpaceOnUse" color-interpolation-filters="sRGB">
<feFlood flood-opacity="0" result="BackgroundImageFix"/>
<feColorMatrix in="SourceAlpha" type="matrix" values="0 0 0 0 0 0 0 0 0 0 0 0 0 0 0 0 0 0 127 0"/>
<feOffset dy="4"/>
<feGaussianBlur stdDeviation="2"/>
<feColorMatrix type="matrix" values="0 0 0 0 0 0 0 0 0 0 0 0 0 0 0 0 0 0 0.25 0"/>
<feBlend mode="normal" in2="BackgroundImageFix" result="effect1_dropShadow"/>
<feBlend mode="normal" in="SourceGraphic" in2="effect1_dropShadow" result="shape"/>
</filter>
</defs>
</svg>
