<svg width="40" height="35" viewBox="0 0 40 35" fill="none" xmlns="http://www.w3.org/2000/svg">
<g filter="url(#filter0_d)">
<path d="M25.0235 4.58258C24.2488 4.58258 23.5181 4.8711 22.9771 5.37411C22.436 4.8711 21.7053 4.58258 20.9307 4.58258C19.3185 4.58258 18.0069 5.82419 18.0069 7.3503C18.0069 8.74975 18.841 10.1754 20.4191 11.4731C21.5753 12.4239 22.7181 12.9748 22.7661 12.9978C22.8324 13.0295 22.9048 13.0453 22.9771 13.0453C23.0494 13.0453 23.1217 13.0295 23.1881 12.9978C23.2361 12.9748 24.3789 12.4239 25.5351 11.4731C27.1132 10.1754 27.9473 8.74975 27.9473 7.3503C27.9473 5.82419 26.6357 4.58258 25.0235 4.58258ZM22.9771 12.0979C22.1188 11.6384 18.9429 9.77385 18.9429 7.3503C18.9429 6.31279 19.8346 5.46868 20.9307 5.46868C21.5977 5.46868 22.217 5.78372 22.5872 6.31143C22.6739 6.43507 22.8203 6.50938 22.9771 6.50938C23.1339 6.50938 23.2803 6.43507 23.367 6.31143C23.7372 5.78372 24.3565 5.46868 25.0236 5.46868C26.1196 5.46868 27.0113 6.31279 27.0113 7.3503C27.0112 9.77385 23.8353 11.6384 22.9771 12.0979Z" fill="#FFBB01"/>
</g>
<g filter="url(#filter1_d)">
<path d="M32.4818 4.58258H29.9805C29.722 4.58258 29.5125 4.78095 29.5125 5.02563C29.5125 5.27032 29.722 5.46868 29.9805 5.46868H32.4818C32.7402 5.46868 32.9498 5.27032 32.9498 5.02563C32.9498 4.78095 32.7402 4.58258 32.4818 4.58258Z" fill="#FFBB01"/>
</g>
<g filter="url(#filter2_d)">
<path d="M31.4812 9.31808H29.9805C29.722 9.31808 29.5125 9.51645 29.5125 9.76114C29.5125 10.0058 29.722 10.2042 29.9805 10.2042H31.4812C31.7397 10.2042 31.9493 10.0058 31.9493 9.76114C31.9493 9.51645 31.7397 9.31808 31.4812 9.31808Z" fill="#FFBB01"/>
</g>
<g filter="url(#filter3_d)">
<path d="M32.4818 6.95047H29.9805C29.722 6.95047 29.5125 7.14884 29.5125 7.39352C29.5125 7.6382 29.722 7.83657 29.9805 7.83657H32.4818C32.7402 7.83657 32.9498 7.6382 32.9498 7.39352C32.9498 7.14884 32.7402 6.95047 32.4818 6.95047Z" fill="#FFBB01"/>
</g>
<g filter="url(#filter4_d)">
<path d="M13.4725 11.6248C13.731 11.6248 13.9405 11.4264 13.9405 11.1817C13.9405 10.937 13.731 10.7387 13.4725 10.7387H12.4722C12.2137 10.7387 12.0042 10.937 12.0042 11.1817C12.0042 11.4264 12.2137 11.6248 12.4722 11.6248H13.4725Z" fill="#FFBB01"/>
</g>
<g filter="url(#filter5_d)">
<path d="M8.46987 11.6248H10.4709C10.7294 11.6248 10.939 11.4264 10.939 11.1817C10.939 10.937 10.7294 10.7387 10.4709 10.7387H8.46987C8.21139 10.7387 8.00183 10.937 8.00183 11.1817C8.00183 11.4264 8.21139 11.6248 8.46987 11.6248Z" fill="#FFBB01"/>
</g>
<g filter="url(#filter6_d)">
<path d="M8.46987 13.9926H13.4724C13.7308 13.9926 13.9404 13.7943 13.9404 13.5496C13.9404 13.3049 13.7308 13.1065 13.4724 13.1065H8.46987C8.21139 13.1065 8.00183 13.3049 8.00183 13.5496C8.00183 13.7943 8.21139 13.9926 8.46987 13.9926Z" fill="#FFBB01"/>
</g>
<g filter="url(#filter7_d)">
<path d="M13.9404 15.9172C13.9404 15.6725 13.7308 15.4742 13.4724 15.4742H8.46987C8.21139 15.4742 8.00183 15.6725 8.00183 15.9172C8.00183 16.1619 8.21139 16.3603 8.46987 16.3603H13.4724C13.7308 16.3603 13.9404 16.1619 13.9404 15.9172Z" fill="#FFBB01"/>
</g>
<path d="M12.4721 18.7279H20.4759C20.7344 18.7279 20.944 18.5295 20.944 18.2848C20.944 18.0402 20.7344 17.8418 20.4759 17.8418H12.4721C12.2136 17.8418 12.0041 18.0402 12.0041 18.2848C12.0041 18.5295 12.2136 18.7279 12.4721 18.7279Z" fill="#FFBB01"/>
<path d="M8.46987 17.8418C8.21139 17.8418 8.00183 18.0402 8.00183 18.2848C8.00183 18.5295 8.21139 18.7279 8.46987 18.7279H10.4709C10.7294 18.7279 10.939 18.5295 10.939 18.2848C10.939 18.0402 10.7294 17.8418 10.4709 17.8418H8.46987Z" fill="#FFBB01"/>
<g filter="url(#filter8_d)">
<path d="M31.4812 11.6859H29.9805C29.722 11.6859 29.5125 11.8843 29.5125 12.129C29.5125 12.3737 29.722 12.572 29.9805 12.572H31.4812C31.7397 12.572 31.9493 12.3737 31.9493 12.129C31.9493 11.8843 31.7397 11.6859 31.4812 11.6859Z" fill="#FFBB01"/>
</g>
<g filter="url(#filter9_d)">
<path d="M33.9825 0.794373H16.9741C15.8885 0.794373 15.0054 1.63038 15.0054 2.65803V14.4966C15.0054 15.5242 15.8885 16.3602 16.9741 16.3602H27.7857L31.2968 19.6839C31.4825 19.8597 31.729 19.9529 31.9805 19.9529C32.1054 19.9529 32.2315 19.9299 32.352 19.8827C32.7152 19.7403 32.9498 19.4079 32.9498 19.0358V16.3603H33.9825C35.0681 16.3603 35.9512 15.5243 35.9512 14.4966V2.65803C35.9512 1.63038 35.0681 0.794373 33.9825 0.794373ZM35.0152 14.4966C35.0152 15.0357 34.5519 15.4742 33.9825 15.4742H32.4818C32.2233 15.4742 32.0137 15.6725 32.0137 15.9172V19.0358C32.0137 19.0463 32.0137 19.0562 31.9938 19.064C31.9739 19.0717 31.9666 19.0648 31.9587 19.0574L28.3105 15.6039C28.2228 15.5208 28.1037 15.4742 27.9796 15.4742H16.9741C16.4047 15.4742 15.9415 15.0357 15.9415 14.4966V2.65803C15.9415 2.11898 16.4047 1.68048 16.9741 1.68048H33.9824C34.5519 1.68048 35.0151 2.11898 35.0151 2.65803V14.4966H35.0152Z" fill="#FFBB01"/>
</g>
<g filter="url(#filter10_d)">
<path d="M24.4778 17.3683C24.2193 17.3683 24.0098 17.5667 24.0098 17.8114V20.6527C24.0098 21.1917 23.5465 21.6302 22.9771 21.6302H11.9717C11.8476 21.6302 11.7285 21.6769 11.6408 21.76L7.99259 25.2135C7.98479 25.2209 7.9773 25.2279 7.95746 25.2201C7.93755 25.2123 7.93755 25.2024 7.93755 25.1919V22.0733C7.93755 21.8286 7.728 21.6303 7.46952 21.6303H5.96874C5.3993 21.6303 4.93607 21.1918 4.93607 20.6527V8.81412C4.93607 8.27508 5.3993 7.83657 5.96874 7.83657H13.4725C13.731 7.83657 13.9406 7.6382 13.9406 7.39352C13.9406 7.14884 13.731 6.95047 13.4725 6.95047H5.96874C4.88315 6.95047 4 7.78648 4 8.81412V20.6527C4 21.6803 4.88315 22.5163 5.96874 22.5163H7.00142V25.1919C7.00142 25.5639 7.23606 25.8963 7.59919 26.0387C7.7197 26.0859 7.84582 26.1089 7.97075 26.1089C8.22224 26.1089 8.46874 26.0158 8.65446 25.84L12.1656 22.5163H22.9772C24.0627 22.5163 24.9459 21.6803 24.9459 20.6527V17.8114C24.9458 17.5667 24.7363 17.3683 24.4778 17.3683Z" fill="#FFBB01"/>
</g>
<defs>
<filter id="filter0_d" x="14.0069" y="4.58258" width="17.9404" height="16.4628" filterUnits="userSpaceOnUse" color-interpolation-filters="sRGB">
<feFlood flood-opacity="0" result="BackgroundImageFix"/>
<feColorMatrix in="SourceAlpha" type="matrix" values="0 0 0 0 0 0 0 0 0 0 0 0 0 0 0 0 0 0 127 0"/>
<feOffset dy="4"/>
<feGaussianBlur stdDeviation="2"/>
<feColorMatrix type="matrix" values="0 0 0 0 0 0 0 0 0 0 0 0 0 0 0 0 0 0 0.25 0"/>
<feBlend mode="normal" in2="BackgroundImageFix" result="effect1_dropShadow"/>
<feBlend mode="normal" in="SourceGraphic" in2="effect1_dropShadow" result="shape"/>
</filter>
<filter id="filter1_d" x="25.5125" y="4.58258" width="11.4373" height="8.8861" filterUnits="userSpaceOnUse" color-interpolation-filters="sRGB">
<feFlood flood-opacity="0" result="BackgroundImageFix"/>
<feColorMatrix in="SourceAlpha" type="matrix" values="0 0 0 0 0 0 0 0 0 0 0 0 0 0 0 0 0 0 127 0"/>
<feOffset dy="4"/>
<feGaussianBlur stdDeviation="2"/>
<feColorMatrix type="matrix" values="0 0 0 0 0 0 0 0 0 0 0 0 0 0 0 0 0 0 0.25 0"/>
<feBlend mode="normal" in2="BackgroundImageFix" result="effect1_dropShadow"/>
<feBlend mode="normal" in="SourceGraphic" in2="effect1_dropShadow" result="shape"/>
</filter>
<filter id="filter2_d" x="25.5125" y="9.31808" width="10.4368" height="8.8861" filterUnits="userSpaceOnUse" color-interpolation-filters="sRGB">
<feFlood flood-opacity="0" result="BackgroundImageFix"/>
<feColorMatrix in="SourceAlpha" type="matrix" values="0 0 0 0 0 0 0 0 0 0 0 0 0 0 0 0 0 0 127 0"/>
<feOffset dy="4"/>
<feGaussianBlur stdDeviation="2"/>
<feColorMatrix type="matrix" values="0 0 0 0 0 0 0 0 0 0 0 0 0 0 0 0 0 0 0.25 0"/>
<feBlend mode="normal" in2="BackgroundImageFix" result="effect1_dropShadow"/>
<feBlend mode="normal" in="SourceGraphic" in2="effect1_dropShadow" result="shape"/>
</filter>
<filter id="filter3_d" x="25.5125" y="6.95047" width="11.4373" height="8.8861" filterUnits="userSpaceOnUse" color-interpolation-filters="sRGB">
<feFlood flood-opacity="0" result="BackgroundImageFix"/>
<feColorMatrix in="SourceAlpha" type="matrix" values="0 0 0 0 0 0 0 0 0 0 0 0 0 0 0 0 0 0 127 0"/>
<feOffset dy="4"/>
<feGaussianBlur stdDeviation="2"/>
<feColorMatrix type="matrix" values="0 0 0 0 0 0 0 0 0 0 0 0 0 0 0 0 0 0 0.25 0"/>
<feBlend mode="normal" in2="BackgroundImageFix" result="effect1_dropShadow"/>
<feBlend mode="normal" in="SourceGraphic" in2="effect1_dropShadow" result="shape"/>
</filter>
<filter id="filter4_d" x="8.00419" y="10.7387" width="9.93636" height="8.8861" filterUnits="userSpaceOnUse" color-interpolation-filters="sRGB">
<feFlood flood-opacity="0" result="BackgroundImageFix"/>
<feColorMatrix in="SourceAlpha" type="matrix" values="0 0 0 0 0 0 0 0 0 0 0 0 0 0 0 0 0 0 127 0"/>
<feOffset dy="4"/>
<feGaussianBlur stdDeviation="2"/>
<feColorMatrix type="matrix" values="0 0 0 0 0 0 0 0 0 0 0 0 0 0 0 0 0 0 0.25 0"/>
<feBlend mode="normal" in2="BackgroundImageFix" result="effect1_dropShadow"/>
<feBlend mode="normal" in="SourceGraphic" in2="effect1_dropShadow" result="shape"/>
</filter>
<filter id="filter5_d" x="4.00183" y="10.7387" width="10.9371" height="8.8861" filterUnits="userSpaceOnUse" color-interpolation-filters="sRGB">
<feFlood flood-opacity="0" result="BackgroundImageFix"/>
<feColorMatrix in="SourceAlpha" type="matrix" values="0 0 0 0 0 0 0 0 0 0 0 0 0 0 0 0 0 0 127 0"/>
<feOffset dy="4"/>
<feGaussianBlur stdDeviation="2"/>
<feColorMatrix type="matrix" values="0 0 0 0 0 0 0 0 0 0 0 0 0 0 0 0 0 0 0.25 0"/>
<feBlend mode="normal" in2="BackgroundImageFix" result="effect1_dropShadow"/>
<feBlend mode="normal" in="SourceGraphic" in2="effect1_dropShadow" result="shape"/>
</filter>
<filter id="filter6_d" x="4.00183" y="13.1065" width="13.9386" height="8.8861" filterUnits="userSpaceOnUse" color-interpolation-filters="sRGB">
<feFlood flood-opacity="0" result="BackgroundImageFix"/>
<feColorMatrix in="SourceAlpha" type="matrix" values="0 0 0 0 0 0 0 0 0 0 0 0 0 0 0 0 0 0 127 0"/>
<feOffset dy="4"/>
<feGaussianBlur stdDeviation="2"/>
<feColorMatrix type="matrix" values="0 0 0 0 0 0 0 0 0 0 0 0 0 0 0 0 0 0 0.25 0"/>
<feBlend mode="normal" in2="BackgroundImageFix" result="effect1_dropShadow"/>
<feBlend mode="normal" in="SourceGraphic" in2="effect1_dropShadow" result="shape"/>
</filter>
<filter id="filter7_d" x="4.00183" y="15.4742" width="13.9386" height="8.8861" filterUnits="userSpaceOnUse" color-interpolation-filters="sRGB">
<feFlood flood-opacity="0" result="BackgroundImageFix"/>
<feColorMatrix in="SourceAlpha" type="matrix" values="0 0 0 0 0 0 0 0 0 0 0 0 0 0 0 0 0 0 127 0"/>
<feOffset dy="4"/>
<feGaussianBlur stdDeviation="2"/>
<feColorMatrix type="matrix" values="0 0 0 0 0 0 0 0 0 0 0 0 0 0 0 0 0 0 0.25 0"/>
<feBlend mode="normal" in2="BackgroundImageFix" result="effect1_dropShadow"/>
<feBlend mode="normal" in="SourceGraphic" in2="effect1_dropShadow" result="shape"/>
</filter>
<filter id="filter8_d" x="25.5125" y="11.6859" width="10.4368" height="8.8861" filterUnits="userSpaceOnUse" color-interpolation-filters="sRGB">
<feFlood flood-opacity="0" result="BackgroundImageFix"/>
<feColorMatrix in="SourceAlpha" type="matrix" values="0 0 0 0 0 0 0 0 0 0 0 0 0 0 0 0 0 0 127 0"/>
<feOffset dy="4"/>
<feGaussianBlur stdDeviation="2"/>
<feColorMatrix type="matrix" values="0 0 0 0 0 0 0 0 0 0 0 0 0 0 0 0 0 0 0.25 0"/>
<feBlend mode="normal" in2="BackgroundImageFix" result="effect1_dropShadow"/>
<feBlend mode="normal" in="SourceGraphic" in2="effect1_dropShadow" result="shape"/>
</filter>
<filter id="filter9_d" x="11.0054" y="0.794373" width="28.9458" height="27.1585" filterUnits="userSpaceOnUse" color-interpolation-filters="sRGB">
<feFlood flood-opacity="0" result="BackgroundImageFix"/>
<feColorMatrix in="SourceAlpha" type="matrix" values="0 0 0 0 0 0 0 0 0 0 0 0 0 0 0 0 0 0 127 0"/>
<feOffset dy="4"/>
<feGaussianBlur stdDeviation="2"/>
<feColorMatrix type="matrix" values="0 0 0 0 0 0 0 0 0 0 0 0 0 0 0 0 0 0 0.25 0"/>
<feBlend mode="normal" in2="BackgroundImageFix" result="effect1_dropShadow"/>
<feBlend mode="normal" in="SourceGraphic" in2="effect1_dropShadow" result="shape"/>
</filter>
<filter id="filter10_d" x="0" y="6.95047" width="28.9459" height="27.1585" filterUnits="userSpaceOnUse" color-interpolation-filters="sRGB">
<feFlood flood-opacity="0" result="BackgroundImageFix"/>
<feColorMatrix in="SourceAlpha" type="matrix" values="0 0 0 0 0 0 0 0 0 0 0 0 0 0 0 0 0 0 127 0"/>
<feOffset dy="4"/>
<feGaussianBlur stdDeviation="2"/>
<feColorMatrix type="matrix" values="0 0 0 0 0 0 0 0 0 0 0 0 0 0 0 0 0 0 0.25 0"/>
<feBlend mode="normal" in2="BackgroundImageFix" result="effect1_dropShadow"/>
<feBlend mode="normal" in="SourceGraphic" in2="effect1_dropShadow" result="shape"/>
</filter>
</defs>
</svg>
