<svg width="40" height="41" viewBox="0 0 40 41" fill="none" xmlns="http://www.w3.org/2000/svg">
<g filter="url(#filter0_d)">
<path d="M20.9008 20.3915C21.4904 20.3481 22.0278 20.0634 22.3767 19.6093L27.6796 12.6697C27.8421 12.4568 27.8178 12.163 27.6207 11.9764C27.4236 11.7904 27.1132 11.7673 26.8884 11.9207L19.5562 16.9421C19.0782 17.2712 18.7775 17.78 18.7316 18.3381C18.6858 18.8962 18.8993 19.4426 19.3167 19.8377C19.6967 20.198 20.2093 20.3974 20.7422 20.3974C20.7949 20.3974 20.8475 20.3953 20.9008 20.3915ZM19.8609 18.4218C19.8808 18.1768 20.0133 17.9532 20.2217 17.8095L24.6943 14.7466L21.4598 18.9793C21.3069 19.1783 21.0707 19.3032 20.8119 19.3225C20.5542 19.3386 20.301 19.2538 20.1169 19.0796C19.9346 18.9064 19.8406 18.6662 19.8609 18.4218Z" fill="#FFBB01"/>
<path d="M33.5873 10.5134C33.5816 10.5021 33.5816 10.4903 33.5754 10.4791C33.5686 10.4684 33.5578 10.4625 33.5505 10.4523C32.9779 9.52263 32.3005 8.65785 31.5314 7.87403L32.7479 6.72296L33.5487 7.48105L35.9513 5.20625L33.5487 2.93199L31.1457 5.20625L31.9471 5.96487L30.7305 7.11594C29.9025 6.38788 28.9895 5.74613 28.0069 5.20411C27.9961 5.19714 27.9899 5.18695 27.9786 5.18052C27.9667 5.17408 27.9542 5.17462 27.9423 5.16872C26.1906 4.21334 24.2225 3.57696 22.1241 3.34374V2.70521H22.9737C23.7547 2.70521 24.3896 2.10421 24.3896 1.36489C24.3896 0.625567 23.7541 0.0245667 22.9731 0.0245667H17.8758C17.0948 0.0245667 16.4599 0.625567 16.4599 1.36489C16.4599 2.10421 17.0948 2.70521 17.8758 2.70521H18.7254V3.32498C18.1137 3.38663 17.5032 3.48099 16.8994 3.6118C16.5947 3.67775 16.4039 3.96565 16.4741 4.25409C16.5438 4.54252 16.8479 4.72374 17.1526 4.65672C17.6737 4.5436 18.1998 4.45835 18.7271 4.40099L19.3348 4.35649C19.5206 4.34308 19.6916 4.33343 19.8581 4.32593V5.38585C19.8581 5.68233 20.1113 5.92198 20.4245 5.92198C20.7377 5.92198 20.9908 5.68233 20.9908 5.38585V4.32968C23.1209 4.42243 25.1281 4.96392 26.9127 5.85497L26.3543 6.77014C26.198 7.02695 26.2908 7.35452 26.5616 7.50249C26.6505 7.55128 26.7479 7.57433 26.8442 7.57433C27.0401 7.57433 27.2304 7.47837 27.3352 7.30627L27.8919 6.39324C29.6641 7.45746 31.1695 8.88249 32.2937 10.56L31.3292 11.087C31.059 11.235 30.9661 11.5626 31.123 11.8194C31.2284 11.9915 31.4181 12.0875 31.6141 12.0875C31.7103 12.0875 31.8078 12.0644 31.8967 12.0156L32.8635 11.487C33.8178 13.2005 34.3915 15.1316 34.477 17.1802H33.3585C33.0453 17.1802 32.7921 17.4198 32.7921 17.7163C32.7921 18.0128 33.0453 18.2524 33.3585 18.2524H34.477C34.3915 20.301 33.8178 22.2321 32.8635 23.9456L31.8967 23.4169C31.626 23.269 31.2793 23.3558 31.123 23.6132C30.9667 23.87 31.0596 24.1975 31.3303 24.3455L32.2948 24.8725C31.1706 26.5501 29.6652 27.9751 27.8931 29.0393L27.3363 28.1263C27.1795 27.869 26.8323 27.7816 26.5627 27.9301C26.2914 28.078 26.1985 28.4062 26.3554 28.6624L26.9138 29.5776C25.1292 30.4686 23.122 31.0101 20.992 31.1029V30.0478C20.992 29.7513 20.7388 29.5117 20.4256 29.5117C20.1124 29.5117 19.8592 29.7513 19.8592 30.0478V31.1072C18.9548 31.0777 18.0475 30.9705 17.1543 30.7764C16.8496 30.7072 16.5455 30.8906 16.4758 31.179C16.4056 31.4674 16.5964 31.7554 16.9011 31.8213C18.0316 32.0679 19.1864 32.1923 20.3322 32.1923C20.3599 32.1923 20.3865 32.1907 20.4143 32.1902C20.4182 32.1902 20.4211 32.1923 20.4245 32.1923C20.429 32.1923 20.433 32.1896 20.4375 32.1896C23.16 32.1719 25.7143 31.476 27.9242 30.274C27.9418 30.2665 27.9605 30.2628 27.9775 30.2531C27.9888 30.2467 27.995 30.2365 28.0058 30.2295C30.2933 28.9675 32.2048 27.1602 33.5408 24.9964C33.5516 24.9819 33.5652 24.9706 33.5748 24.9546C33.5816 24.9433 33.581 24.9315 33.5867 24.9202C34.8803 22.7972 35.6239 20.3385 35.6239 17.7168C35.6239 15.0951 34.8803 12.6365 33.5873 10.5134ZM33.5482 4.44817L34.349 5.20625L33.5482 5.96487L32.7468 5.20625L33.5482 4.44817ZM19.8581 3.2526V1.63295H17.8758C17.7201 1.63295 17.5927 1.51232 17.5927 1.36489C17.5927 1.21745 17.7201 1.09682 17.8758 1.09682H22.9731C23.1288 1.09682 23.2563 1.21745 23.2563 1.36489C23.2563 1.51232 23.1288 1.63295 22.9731 1.63295H20.9908V3.2526C20.7937 3.24509 20.6057 3.24134 20.4245 3.24134C20.4086 3.24134 20.3905 3.24241 20.3746 3.24241C20.3605 3.24241 20.3463 3.24134 20.3322 3.24134C20.2393 3.24134 20.1464 3.24724 20.0535 3.24885C19.9878 3.25045 19.9261 3.24992 19.8581 3.2526Z" fill="#FFBB01"/>
<path d="M15.3273 7.53049H12.4955C12.1823 7.53049 11.9292 7.77014 11.9292 8.06662C11.9292 8.3631 12.1823 8.60274 12.4955 8.60274H15.3273C15.6405 8.60274 15.8937 8.3631 15.8937 8.06662C15.8937 7.77014 15.6405 7.53049 15.3273 7.53049Z" fill="#FFBB01"/>
<path d="M15.3272 11.2833H9.66359C9.35039 11.2833 9.09723 11.5229 9.09723 11.8194C9.09723 12.1159 9.35039 12.3555 9.66359 12.3555H15.3272C15.6404 12.3555 15.8936 12.1159 15.8936 11.8194C15.8936 11.5229 15.6404 11.2833 15.3272 11.2833Z" fill="#FFBB01"/>
<path d="M15.3272 15.036H6.83178C6.51858 15.036 6.26542 15.2757 6.26542 15.5722C6.26542 15.8686 6.51858 16.1083 6.83178 16.1083H15.3272C15.6404 16.1083 15.8936 15.8686 15.8936 15.5722C15.8936 15.2757 15.6404 15.036 15.3272 15.036Z" fill="#FFBB01"/>
<path d="M15.3272 18.7892H4.56636C4.25316 18.7892 4 19.0288 4 19.3253C4 19.6218 4.25316 19.8614 4.56636 19.8614H15.3272C15.6404 19.8614 15.8936 19.6218 15.8936 19.3253C15.8936 19.0288 15.6404 18.7892 15.3272 18.7892Z" fill="#FFBB01"/>
<path d="M15.3271 22.5419H7.96442C7.65123 22.5419 7.39806 22.7816 7.39806 23.0781C7.39806 23.3745 7.65123 23.6142 7.96442 23.6142H15.3271C15.6403 23.6142 15.8935 23.3745 15.8935 23.0781C15.8935 22.7816 15.6403 22.5419 15.3271 22.5419Z" fill="#FFBB01"/>
<path d="M15.3272 26.2948H11.3627C11.0495 26.2948 10.7963 26.5345 10.7963 26.831C10.7963 27.1274 11.0495 27.3671 11.3627 27.3671H15.3272C15.6404 27.3671 15.8936 27.1274 15.8936 26.831C15.8936 26.5345 15.6404 26.2948 15.3272 26.2948Z" fill="#FFBB01"/>
</g>
<defs>
<filter id="filter0_d" x="0" y="0.0245667" width="39.9513" height="40.1677" filterUnits="userSpaceOnUse" color-interpolation-filters="sRGB">
<feFlood flood-opacity="0" result="BackgroundImageFix"/>
<feColorMatrix in="SourceAlpha" type="matrix" values="0 0 0 0 0 0 0 0 0 0 0 0 0 0 0 0 0 0 127 0"/>
<feOffset dy="4"/>
<feGaussianBlur stdDeviation="2"/>
<feColorMatrix type="matrix" values="0 0 0 0 0 0 0 0 0 0 0 0 0 0 0 0 0 0 0.25 0"/>
<feBlend mode="normal" in2="BackgroundImageFix" result="effect1_dropShadow"/>
<feBlend mode="normal" in="SourceGraphic" in2="effect1_dropShadow" result="shape"/>
</filter>
</defs>
</svg>
